:SAMPLES-PER-SECOND 30
:FRAME-RANGE 1-3535
:FULLY-SPECIFIED
:DEGREES
774
root  -34.6025 39.1922 1.695 179.29 63.3231 173.411
RightUpLeg  1.40521 -9.36705 -12.0761
RightLeg  11.9492 -13.0897 -3.08258
RightFoot  -12.0722 0.0256297 16.8399
RightToes  5.38503e-012 1.26228e-014 -6.01869e-014
Spine  -5.17638 -0.883398 0.095033
Spine1  4.64539 -0.963117 0.592037
HEad  -5.71233 36.2885 -11.0579
LeftShoulder1  1.10445 -0.491434 -23.0563
LeftArm  27.0165 2.35585 -55.4146
LeftForeArm  23.0559 -21.6754 -4.42056
LeftHand  -0.0751821 4.29037 6.05061
RightShoulder  1.04842 -0.0902095 26.4805
RightArm  -24.2628 -4.04847 47.6911
RightForeArm  73.1614 -5.3221 4.37323
RightHand  0.397943 -8.59397 -15.2053
LeftUpLeg  -15.2301 20.6534 8.28472
LeftLeg  16.9172 16.7855 5.76128
LeftFoot  -2.43824 0.567781 -7.10039
LeftToes  8.9788e-011 3.29689e-010 2.1201e-011
775
root  -34.7375 39.0808 0.789118 179.763 60.4845 174.002
RightUpLeg  2.32772 -10.1538 -13.4956
RightLeg  13.0782 -13.9168 -3.6272
RightFoot  -11.3929 -0.0692504 19.2472
RightToes  5.38503e-012 1.26228e-014 -6.01869e-014
Spine  -5.15039 -0.416711 0.669518
Spine1  4.64543 -0.401329 -0.0861565
HEad  -4.88762 33.8407 -9.89025
LeftShoulder1  0.940668 0.083542 -23.1666
LeftArm  24.7677 5.29262 -53.3336
LeftForeArm  22.4522 -21.5409 -4.49735
LeftHand  -0.0827612 4.06596 5.75811
RightShoulder  1.10207 0.114098 26.0994
RightArm  -24.5144 -3.16292 48.0393
RightForeArm  72.9997 -5.29551 4.17309
RightHand  0.412054 -8.55066 -15.8797
LeftUpLeg  -16.0864 19.8536 6.54642
LeftLeg  17.2032 17.0855 5.93395
LeftFoot  -2.60502 0.548153 -6.96688
LeftToes  8.9788e-011 3.29689e-010 2.1201e-011
776
root  -34.8721 39.0264 -0.292181 -179.759 57.8958 174.723
RightUpLeg  3.34618 -11.0299 -15.2252
RightLeg  14.4932 -13.8368 -4.09097
RightFoot  -9.76792 -0.3854 22.896
RightToes  5.38503e-012 1.26228e-014 -6.01869e-014
Spine  -5.50893 -0.0333151 1.13152
Spine1  4.89814 -0.00379901 -0.492569
HEad  -3.66985 31.7464 -8.82814
LeftShoulder1  0.770854 0.683717 -23.3817
LeftArm  23.869 8.46777 -51.1354
LeftForeArm  20.2135 -21.7121 -4.49225
LeftHand  -0.090215 3.90763 5.78656
RightShoulder  1.15368 0.334935 25.5507
RightArm  -23.9998 -2.68839 47.761
RightForeArm  70.692 -5.43017 4.43197
RightHand  0.401119 -8.25281 -16.9826
LeftUpLeg  -16.0936 16.6077 5.35573
LeftLeg  17.1837 14.8576 5.17164
LeftFoot  -1.42897 0.646833 -7.35468
LeftToes  8.9788e-011 3.29689e-010 2.1201e-011
777
root  -35.029 38.9452 -1.50814 179.651 55.3909 174.472
RightUpLeg  3.95604 -11.1901 -17.7432
RightLeg  17.5376 -13.5142 -4.9426
RightFoot  -7.89894 -0.880129 27.0005
RightToes  5.38503e-012 1.26228e-014 -6.01869e-014
Spine  -5.85413 0.213887 0.555686
Spine1  5.20692 0.181361 -0.497113
HEad  -2.28907 29.978 -7.7684
LeftShoulder1  0.606142 1.24332 -23.3717
LeftArm  22.8708 11.5144 -49.4369
LeftForeArm  19.0871 -21.6028 -4.58777
LeftHand  -0.0512409 4.848 6.74755
RightShoulder  1.17977 0.466787 25.1214
RightArm  -23.1137 -2.5421 46.8989
RightForeArm  66.7561 -5.65668 4.88985
RightHand  0.386758 -7.94918 -18.2219
LeftUpLeg  -16.3327 13.9087 3.41128
LeftLeg  19.4118 14.3529 5.85773
LeftFoot  -3.424 0.493125 -6.82481
LeftToes  8.9788e-011 3.29689e-010 2.1201e-011
778
root  -35.2182 38.8768 -2.73811 177.862 52.8375 172.605
RightUpLeg  3.34662 -10.7257 -21.2349
RightLeg  22.6082 -13.5326 -6.31445
RightFoot  -5.28861 -1.74012 31.4562
RightToes  5.38503e-012 1.26228e-014 -6.01869e-014
Spine  -6.25376 0.43769 -1.30659
Spine1  5.70062 0.393325 -0.714852
HEad  -1.22584 27.922 -6.73414
LeftShoulder1  0.544963 1.44702 -23.2981
LeftArm  22.7807 13.7993 -47.8216
LeftForeArm  18.8365 -21.4487 -4.67997
LeftHand  -0.0706578 4.36412 5.92205
RightShoulder  1.17579 0.46008 25.0684
RightArm  -23.0469 -2.81156 45.7061
RightForeArm  62.5184 -5.80609 4.86769
RightHand  0.316127 -7.41363 -18.8979
LeftUpLeg  -15.927 11.628 0.351913
LeftLeg  20.4824 14.1725 6.08153
LeftFoot  -5.09407 0.311603 -5.14856
LeftToes  8.9788e-011 3.29689e-010 2.1201e-011
779
root  -35.3975 38.8883 -3.96395 177.041 50.7167 171.653
RightUpLeg  0.7749 -8.93983 -23.2882
RightLeg  30.0253 -15.0455 -9.42691
RightFoot  -0.713568 -2.85782 30.014
RightToes  5.38503e-012 1.26228e-014 -6.01869e-014
Spine  -6.53698 0.876465 -1.9725
Spine1  5.92663 0.958968 -1.71296
HEad  -0.644541 25.649 -5.79596
LeftShoulder1  0.519936 1.51134 -22.9353
LeftArm  23.1268 15.3676 -46.6033
LeftForeArm  18.2405 -21.4981 -4.68224
LeftHand  -0.0674107 4.41792 5.82137
RightShoulder  1.18213 0.51237 24.7957
RightArm  -23.8343 -3.69518 45.0266
RightForeArm  58.301 -3.51401 4.86224
RightHand  0.231619 -6.83115 -19.6047
LeftUpLeg  -14.8058 11.3792 -2.03976
LeftLeg  20.1745 12.8386 5.15617
LeftFoot  -6.91259 0.204055 -4.20415
LeftToes  8.9788e-011 3.29689e-010 2.1201e-011
780
root  -35.5384 39.0337 -5.21701 176.598 48.1271 171.491
RightUpLeg  -2.77755 -8.58107 -23.9421
RightLeg  39.0823 -17.3864 -14.8188
RightFoot  5.86684 -2.62552 17.4963
RightToes  5.38503e-012 1.26228e-014 -6.01869e-014
Spine  -6.25282 0.9125 -2.22929
Spine1  5.80933 1.09797 -2.16296
HEad  -0.717486 23.6382 -5.29045
LeftShoulder1  0.456001 1.72796 -22.8591
LeftArm  24.1272 16.1169 -45.2545
LeftForeArm  17.7535 -22.1505 -4.40043
LeftHand  -0.0706622 4.35385 5.86317
RightShoulder  1.14267 0.433801 24.3619
RightArm  -25.3902 -4.32848 45.1431
RightForeArm  55.6704 -2.50782 4.28336
RightHand  0.151534 -6.33309 -19.9956
LeftUpLeg  -12.3529 7.50359 -3.71561
LeftLeg  18.381 14.5966 4.76019
LeftFoot  -7.73286 0.154541 -3.43291
LeftToes  8.9788e-011 3.29689e-010 2.1201e-011
781
root  -35.6195 39.0122 -6.25789 176.522 45.3851 171.814
RightUpLeg  -6.26819 -7.12699 -22.9639
RightLeg  46.6517 -15.0752 -16.7209
RightFoot  5.22379 -1.11155 7.87035
RightToes  5.38503e-012 1.26228e-014 -6.01869e-014
Spine  -5.35668 0.87318 -2.91221
Spine1  5.37891 1.02884 -2.64798
HEad  -0.833607 21.6105 -4.95147
LeftShoulder1  0.495145 1.60564 -23.0937
LeftArm  25.3106 15.7003 -44.0504
LeftForeArm  16.7577 -22.5318 -4.31726
LeftHand  -0.056993 4.64791 5.83103
RightShoulder  1.10913 0.302037 24.5494
RightArm  -26.6165 -4.96655 44.915
RightForeArm  54.5922 -2.04761 3.77904
RightHand  0.13354 -6.23022 -19.9565
LeftUpLeg  -11.0448 4.92424 -5.08161
LeftLeg  18.5831 14.6446 4.82282
LeftFoot  -9.16086 0.104851 -2.62134
LeftToes  8.9788e-011 3.29689e-010 2.1201e-011
782
root  -35.5896 38.8437 -7.1065 176.711 42.4175 172.077
RightUpLeg  -9.53414 -4.727 -21.1127
RightLeg  52.173 -9.58392 -13.312
RightFoot  -1.77007 -0.736557 8.63727
RightToes  5.38503e-012 1.26228e-014 -6.01869e-014
Spine  -4.73279 0.765804 -4.74145
Spine1  5.35898 0.710283 -2.86732
HEad  -1.01703 19.3794 -4.42368
LeftShoulder1  0.57938 1.30499 -22.9159
LeftArm  25.4488 14.3536 -44.2892
LeftForeArm  16.5425 -22.086 -4.49199
LeftHand  -0.0528755 4.7423 5.87219
RightShoulder  1.08826 0.200547 24.8536
RightArm  -27.223 -5.58491 44.7273
RightForeArm  54.9703 -2.6111 3.39773
RightHand  0.130812 -6.21558 -19.9305
LeftUpLeg  -10.8551 4.10455 -6.0889
LeftLeg  20.3115 12.6863 4.53329
LeftFoot  -11.2411 0.0689588 -1.73921
LeftToes  8.9788e-011 3.29689e-010 2.1201e-011
783
root  -35.4309 38.7811 -8.03261 177.351 39.0972 173.187
RightUpLeg  -12.3343 -2.51081 -17.8972
RightLeg  55.4784 -5.91389 -9.56139
RightFoot  -4.11293 -0.557793 8.3717
RightToes  5.38503e-012 1.26228e-014 -6.01869e-014
Spine  -4.419 0.40322 -5.99907
Spine1  5.55547 0.109158 -2.7285
HEad  -1.18321 17.3231 -3.68268
LeftShoulder1  0.720174 0.792818 -22.5988
LeftArm  25.168 12.9889 -45.2382
LeftForeArm  16.7193 -22.0759 -4.48544
LeftHand  -0.0586163 4.61403 5.84465
RightShoulder  1.02834 -0.0216752 25.1263
RightArm  -27.4316 -6.46587 44.7383
RightForeArm  57.2578 -3.41719 3.16382
RightHand  0.164885 -6.43762 -19.5547
LeftUpLeg  -9.65589 3.49753 -6.17035
LeftLeg  20.8143 10.2888 3.69933
LeftFoot  -12.9213 0.0617323 -1.14427
LeftToes  8.9788e-011 3.29689e-010 2.1201e-011
